<svg width="1598" height="1127" viewBox="0 0 1598 1127" fill="none" xmlns="http://www.w3.org/2000/svg">
<path d="M-397.322 136.74C-401.899 124.301 -395.526 110.506 -383.086 105.929L1195.49 -474.929C1210.53 -480.465 1226.67 -469.977 1227.72 -453.981L1297.91 613.05C1298.75 625.827 1289.41 637.013 1276.69 638.469L-133.777 799.892C-144.775 801.151 -155.207 794.724 -159.03 784.336L-397.322 136.74Z" fill="url(#paint0_linear_238_2155)"/>
<rect x="661" y="-212" width="387" height="266" transform="rotate(30 661 -212)" fill="#0090B2" fill-opacity="0.21"/>
<rect x="651" y="-72" width="387" height="266" transform="rotate(30 651 -72)" fill="#0090B2" fill-opacity="0.21"/>
<path d="M-323.993 14.5484L475.636 282.214L-198.143 848.343L-323.993 14.5484Z" fill="#0090B2" fill-opacity="0.19"/>
<defs>
<linearGradient id="paint0_linear_238_2155" x1="410.002" y1="-185.899" x2="782.388" y2="826.116" gradientUnits="userSpaceOnUse">
<stop offset="0.369792" stop-color="#01B1C9"/>
<stop offset="0.989583" stop-color="#17C6D1"/>
</linearGradient>
</defs>
</svg>
