<svg width="26" height="26" viewBox="0 0 26 26" fill="none" xmlns="http://www.w3.org/2000/svg">
<path d="M6.5 3.25C6.5 5.04493 5.04493 6.5 3.25 6.5C1.45507 6.5 0 5.04493 0 3.25C0 1.45507 1.45507 0 3.25 0C5.04493 0 6.5 1.45507 6.5 3.25Z" fill="white"/>
<path d="M6.5 13C6.5 14.795 5.04493 16.25 3.25 16.25C1.45507 16.25 0 14.795 0 13C0 11.205 1.45507 9.75 3.25 9.75C5.04493 9.75 6.5 11.205 6.5 13Z" fill="white"/>
<path d="M3.25 26C5.04493 26 6.5 24.545 6.5 22.75C6.5 20.955 5.04493 19.5 3.25 19.5C1.45507 19.5 0 20.955 0 22.75C0 24.545 1.45507 26 3.25 26Z" fill="white"/>
<path d="M16.25 3.25C16.25 5.04493 14.795 6.5 13 6.5C11.205 6.5 9.75 5.04493 9.75 3.25C9.75 1.45507 11.205 0 13 0C14.795 0 16.25 1.45507 16.25 3.25Z" fill="white"/>
<path d="M13 16.25C14.795 16.25 16.25 14.795 16.25 13C16.25 11.205 14.795 9.75 13 9.75C11.205 9.75 9.75 11.205 9.75 13C9.75 14.795 11.205 16.25 13 16.25Z" fill="white"/>
<path d="M16.25 22.75C16.25 24.545 14.795 26 13 26C11.205 26 9.75 24.545 9.75 22.75C9.75 20.955 11.205 19.5 13 19.5C14.795 19.5 16.25 20.955 16.25 22.75Z" fill="white"/>
<path d="M22.75 6.5C24.545 6.5 26 5.04493 26 3.25C26 1.45507 24.545 0 22.75 0C20.955 0 19.5 1.45507 19.5 3.25C19.5 5.04493 20.955 6.5 22.75 6.5Z" fill="white"/>
<path d="M26 13C26 14.795 24.545 16.25 22.75 16.25C20.955 16.25 19.5 14.795 19.5 13C19.5 11.205 20.955 9.75 22.75 9.75C24.545 9.75 26 11.205 26 13Z" fill="white"/>
<path d="M22.75 26C24.545 26 26 24.545 26 22.75C26 20.955 24.545 19.5 22.75 19.5C20.955 19.5 19.5 20.955 19.5 22.75C19.5 24.545 20.955 26 22.75 26Z" fill="white"/>
</svg>
